<svg width="719" height="175" viewBox="0 0 719 175" fill="none" xmlns="http://www.w3.org/2000/svg">
<path d="M402.639 161.199C403.148 156.859 403.805 152.894 403.814 148.929C403.892 110.79 403.883 72.6503 403.821 34.511C403.815 31.205 403.596 27.822 402.874 24.6102C401.343 17.8042 396.842 13.8079 389.167 12.4943C402.976 8.49811 415.954 4.74268 429.596 0.794983C429.696 2.9939 429.857 4.88483 429.857 6.77576C429.871 55.0745 429.915 103.373 429.829 151.672C429.812 161.28 432.385 169.087 442.192 173.257C425.284 173.257 408.376 173.257 393.13 173.257C395.752 169.984 399.119 165.78 402.639 161.199Z" fill="black"/>
<path d="M360.038 110.957C366.429 117.208 373.28 122.653 378.5 129.367C385.563 138.452 386.081 149.142 381.253 159.548C377.402 167.849 365.64 173.661 354.783 173.801C357.03 172.128 360.48 170.736 361.857 168.213C363.361 165.456 363.805 161.466 363.13 158.357C362.435 155.155 360.46 151.612 357.953 149.534C349.291 142.352 339.812 136.14 331.304 128.795C324.33 122.774 317.466 116.271 312.057 108.882C305.411 99.804 304.985 88.9921 310.36 79.0863C315.273 70.0339 324.16 66.2183 334.802 64.5981C324.575 74.0392 324.196 81.8257 334.263 90.9122C342.232 98.1053 351.231 104.158 360.038 110.957Z" fill="black"/>
<path d="M212.667 145.994C212.725 149.323 212.727 152.156 212.852 154.984C213.241 163.763 214.223 165.233 225.088 173.463C207.941 173.463 191.062 173.463 174.183 173.463C185.955 168.583 186.555 158.578 186.401 147.882C186.147 130.22 186.43 112.55 186.291 94.8853C186.204 83.9081 182.889 79.396 172.608 75.6818C185.918 71.8305 198.894 68.0756 212.667 64.0899C212.667 91.347 212.667 118.421 212.667 145.994Z" fill="black"/>
<path d="M243.749 66.6192C252.418 63.9952 260.789 63.0357 269.104 66.1789C281.054 70.6967 284.526 80.898 284.737 92.1517C285.058 109.287 284.316 126.44 284.142 143.587C284.105 147.223 284.263 150.915 284.862 154.492C286.542 164.533 288.714 166.416 299.622 167.341C294.264 171.625 288.527 173.07 282.793 173.791C264.393 176.107 257.057 169.536 257.172 150.925C257.289 131.779 257.777 112.636 257.933 93.491C257.96 90.2044 257.418 86.8437 256.653 83.6334C254.424 74.2826 248.24 70.5614 238.757 72.7952C235.58 73.5435 232.512 74.7589 229.174 75.3932C233.023 71.1123 238 68.6266 243.749 66.6192Z" fill="black"/>
<path d="M691 93.1345C690.713 109.584 690.374 125.55 690.173 141.519C690.123 145.498 690.359 149.499 690.741 153.463C691.798 164.436 696.023 167.814 707.071 167.26C703.768 168.815 700.59 170.798 697.129 171.814C693.025 173.018 688.701 173.779 684.429 174.047C670.952 174.892 664.318 169.069 664.057 155.63C663.769 140.82 664.13 125.998 664.209 111.181C664.242 104.854 664.457 98.5215 664.241 92.2035C664.128 88.9134 663.626 85.5365 662.661 82.3951C660.028 73.8268 654.65 70.72 645.868 72.6878C642.072 73.5382 638.433 75.0868 634.252 75.6552C636.293 74.1814 638.241 72.5521 640.392 71.2603C650.131 65.4104 660.544 62.5404 671.882 65.1375C682.86 67.6523 689.633 76.4107 690.845 89.1601C690.955 90.3187 690.95 91.4882 691 93.1345Z" fill="black"/>
<path d="M474.691 154.325C474.813 136.582 475.092 119.279 475.19 101.976C475.22 96.6666 475.365 91.2394 474.392 86.0671C471.991 73.3109 464.94 69.4935 452.646 73.6862C450.351 74.4689 448.132 75.4743 445.878 76.377C445.618 75.9103 445.358 75.4437 445.098 74.9771C450.433 72.142 455.57 68.7864 461.17 66.6414C465.422 65.0129 470.259 64.2994 474.844 64.2634C491.539 64.1322 501.384 74.0957 501.749 92.1626C502.058 107.46 501.242 122.778 501.109 138.088C501.061 143.556 501.095 149.098 501.902 154.486C503.434 164.712 505.637 166.484 516.77 167.315C511.037 171.505 505.26 172.854 499.367 173.89C498.391 174.061 497.373 173.993 496.374 174.034C481.179 174.664 475.803 169.867 474.691 154.325Z" fill="black"/>
<path d="M593 118C592.987 109.506 593.249 101.5 592.892 93.5216C592.423 83.0567 588.819 78.5314 578.929 75.0524C592.343 71.1973 605.528 67.408 619 63.5363C619 74.8386 619 86.151 619 97.4635C619 114.951 619.181 132.44 618.931 149.924C618.784 160.192 620.924 168.846 631.513 173.399C614.445 173.399 597.376 173.399 579.054 173.399C590.931 169.045 593.236 160.287 593.043 149.976C592.847 139.487 593 128.992 593 118Z" fill="black"/>
<path d="M525.247 77.636C523.179 76.7074 521.432 75.9597 519.377 75.0801C532.614 71.2485 545.443 67.5353 558.898 63.6404C558.979 65.369 559.127 67.0867 559.128 68.8046C559.142 95.4471 559.112 122.09 559.171 148.732C559.179 152.044 559.395 155.396 559.943 158.658C561.106 165.589 565.075 170.43 571.596 173.408C554.688 173.408 537.78 173.408 520.872 173.408C531.298 168.855 533.386 160.328 533.219 150.123C532.916 131.644 533.189 113.157 533.099 94.6743C533.067 88.0234 531.961 81.6989 525.247 77.636Z" fill="black"/>
<path d="M154.472 154.221C156.506 163.723 158.56 167.344 169.834 167.19C164.02 171.532 158.192 172.774 152.302 173.859C151.978 173.919 151.638 173.892 151.305 173.914C133.855 175.072 127.076 168.878 127.174 151.309C127.297 129.345 127.723 107.383 127.991 85.4204C128.076 78.4024 127.547 71.5262 121.743 65.3025C135.327 67.4269 147.708 69.9905 152.669 83.7903C154.574 89.0906 154.811 95.1893 154.838 100.929C154.924 118.554 154.54 136.181 154.472 154.221Z" fill="black"/>
<path d="M78.1564 90.2483C71.7842 101.519 66.4628 113.098 59.1482 123.238C46.3358 141 16.9333 142.212 0.782288 125.889C3.78485 126.73 5.99896 127.537 8.28418 127.96C20.1862 130.163 29.0522 125.451 35.4424 113.463C39.9634 104.982 44.1148 96.2989 48.7978 87.9105C61.2313 65.6393 80.2988 59.9212 103.659 62.5711C105.3 62.7572 106.922 63.1095 108.651 63.557C93.4206 63.7557 86.8857 74.8503 80.3366 85.9072C79.5764 87.1907 78.9814 88.5722 78.1564 90.2483Z" fill="black"/>
<path d="M116.137 167.126C104.763 176.56 84.0424 176.808 73.5362 167.636C59.7938 155.639 62.3534 131.983 78.9111 121.263C90.0433 114.056 102.645 111.305 115.974 111.166C106.814 114.212 100.375 120.055 96.8369 128.986C93.4175 137.618 92.8535 146.461 95.2945 155.383C98.0975 165.629 104.659 169.329 115.348 166.794C115.865 166.861 116.137 167.126 116.137 167.126Z" fill="black"/>
<path d="M545.032 45.2168C534.318 44.4078 527.636 37.3915 528.015 27.7653C528.36 18.9942 535.773 11.9334 544.703 11.8677C553.759 11.8013 561.088 18.5096 561.699 27.4256C562.345 36.8554 555.69 44.1675 545.032 45.2168Z" fill="black"/>
<path d="M338.333 173.892C327.43 172.924 317.033 169.59 305.727 172.473C305.727 158.521 305.727 144.832 305.727 130.865C314.097 147.724 321.018 165.949 340.779 173.919C340.091 173.919 339.402 173.919 338.333 173.892Z" fill="black"/>
<path d="M362.364 74.6741C358.073 71.1215 354.03 67.8314 349.94 64.5035C359.422 64.3023 369.087 69.6702 378.765 65.7428C379.42 79.542 380.07 93.2268 380.635 105.119C375.22 96.051 368.916 85.4938 362.364 74.6741Z" fill="black"/>
<path d="M337.606 64.3641C337.54 64.4568 337.312 64.5432 337.085 64.6295C337.063 64.5677 337.04 64.5059 337.018 64.4442C337.161 64.4153 337.303 64.3865 337.606 64.3641Z" fill="black"/>
<path d="M630.862 79.4803C630.804 79.4005 631.242 79.4049 631.242 79.4049C631.242 79.4049 630.92 79.5602 630.862 79.4803Z" fill="black"/>
<path d="M300.32 166.705C300.506 166.456 300.877 166.398 301.249 166.34C301.001 166.526 300.753 166.711 300.32 166.705Z" fill="black"/>
<path d="M718.486 160.448C718.514 160.431 718.458 160.465 718.486 160.448Z" fill="black"/>
<path d="M115.732 166.726C115.954 166.481 116.309 166.371 116.664 166.262C116.649 166.482 116.635 166.701 116.379 167.023C116.137 167.126 115.865 166.861 115.732 166.726Z" fill="black"/>
<path d="M170.297 166.68C170.251 166.432 170.372 166.263 170.485 166.268C170.598 166.273 170.704 166.452 170.813 166.555C170.695 166.648 170.578 166.741 170.297 166.68Z" fill="black"/>
<path d="M517.629 166.697C517.344 166.728 517.238 166.623 517.131 166.518C517.357 166.532 517.582 166.546 517.629 166.697Z" fill="black"/>
<path d="M227.419 76.4064C227.715 76.3857 227.819 76.5071 227.922 76.6286C227.69 76.6019 227.459 76.5753 227.419 76.4064Z" fill="black"/>
</svg>
